<svg xmlns="http://www.w3.org/2000/svg" version="1.1" xmlns:xlink="http://www.w3.org/1999/xlink" xmlns:svgjs="http://svgjs.dev/svgjs" width="765" height="625" viewBox="0 0 300 300" style="background-color: rgb(0, 0, 0);" class="svg-animations "><svg viewBox="0 0 139.99041748046875 138.99172973632812" width="90" height="90" style="fill: rgb(255, 255, 255);" x="105" y="79.46500015258789"><svg width="140" height="134" viewBox="0 0 140 134" xmlns="http://www.w3.org/2000/svg">
	<g clip-path="url(#clip0)">
	<path d="M130.694 68.26C133.686 63.1805 135.837 57.8465 137.187 52.4106C141.693 64.5045 140.917 78.4443 133.838 90.4236C121.4 111.48 94.2584 118.469 73.2018 106.031C67.9185 102.912 63.5137 98.8638 60.0891 94.2045C86.2635 103.281 116.066 93.0206 130.694 68.26Z"/>
	<path d="M101.439 15.0598C98.5359 9.92943 94.9841 5.41015 90.9611 1.51465C103.679 3.65335 115.366 11.3043 122.202 23.4109C134.22 44.7088 126.696 71.71 105.398 83.7274C100.051 86.7445 94.3475 88.5268 88.606 89.1761C109.561 71.048 115.57 40.1132 101.439 15.0598Z"/>
	<path d="M40.7384 13.8123C34.8441 13.7487 29.1534 14.5634 23.7683 16.1165C31.9796 6.16135 44.443 -0.140189 58.3577 -0.000154647C82.8135 0.241723 102.432 20.2539 102.19 44.7089C102.126 50.845 100.815 56.6882 98.5105 61.9713C93.2909 34.7665 69.5099 14.0924 40.7384 13.8123Z"/>
	<path d="M9.30624 65.7395C6.31452 70.8189 4.16302 76.1529 2.81356 81.5888C-1.69312 69.4949 -0.916544 55.5552 6.16175 43.5759C18.587 22.5326 45.7289 15.5436 66.7856 27.9812C72.0688 31.1001 76.4737 35.1484 79.8982 39.8077C53.7365 30.7182 23.9339 40.9789 9.30624 65.7395Z"/>
	<path d="M38.5614 118.94C41.4513 124.07 45.0031 128.59 49.0388 132.485C36.3208 130.346 24.6339 122.695 17.7975 110.589C5.77971 89.291 13.3036 62.2898 34.6021 50.2723C39.949 47.2552 45.6524 45.473 51.394 44.8237C30.4392 62.9518 24.4303 93.8866 38.5614 118.94Z"/>
	<path d="M99.2616 120.187C105.156 120.251 110.847 119.436 116.232 117.883C108.02 127.838 95.5442 134.127 81.6423 133.987C57.1865 133.745 37.5684 113.733 37.8103 89.278C37.874 83.142 39.1852 77.2987 41.4895 72.0156C46.7091 99.2332 70.5029 119.907 99.2616 120.187Z"/>
	</g>
	</svg></svg><svg style="fill: rgb(255, 255, 255);" x="45.144996643066406" y="169.4650001525879"><path d="M5.76 9.68L5.76 9.68L8.67 9.68Q9.06 9.68 9.06 10.03L9.06 10.03L9.06 10.77Q9.06 11.12 8.67 11.12L8.67 11.12L5.76 11.12Q5.47 11.12 5.47 11.41L5.47 11.41L5.47 25.62Q5.47 26 5.12 26L5.12 26L4.19 26Q3.84 26 3.84 25.62L3.84 25.62L3.84 11.41Q3.84 11.12 3.55 11.12L3.55 11.12L1.50 11.12Q1.15 11.12 1.15 10.77L1.15 10.77L1.15 10.03Q1.15 9.68 1.50 9.68L1.50 9.68L3.55 9.68Q3.84 9.68 3.84 9.39L3.84 9.39L3.84 7.98Q3.84 3.50 7.90 3.50L7.90 3.50L8.67 3.50Q9.06 3.50 9.06 3.86L9.06 3.86L9.06 4.59Q9.06 4.94 8.67 4.94L8.67 4.94L8.06 4.94Q6.62 4.94 6.05 5.71Q5.47 6.48 5.47 8.05L5.47 8.05L5.47 9.39Q5.47 9.68 5.76 9.68ZM18.30 26L18.30 26L16.26 26Q14.18 26 12.98 24.78Q11.78 23.57 11.78 21.46L11.78 21.46L11.78 14.22Q11.78 12.11 12.98 10.90Q14.18 9.68 16.26 9.68L16.26 9.68L23.04 9.68Q23.36 9.68 23.36 10.06L23.36 10.06L23.36 25.62Q23.36 26 23.04 26L23.04 26L22.11 26Q21.76 26 21.76 25.62L21.76 25.62L21.76 24.34L21.63 24.34Q20.80 26 18.30 26ZM21.76 21.42L21.76 21.42L21.76 11.41Q21.76 11.12 21.44 11.12L21.44 11.12L16.38 11.12Q14.91 11.12 14.14 11.95Q13.38 12.78 13.38 14.29L13.38 14.29L13.38 21.39Q13.38 22.90 14.14 23.73Q14.91 24.56 16.38 24.56L16.38 24.56L18.46 24.56Q20 24.56 20.88 23.74Q21.76 22.93 21.76 21.42ZM29.41 26L29.41 26L28.48 26Q28.16 26 28.16 25.62L28.16 25.62L28.16 10.06Q28.16 9.68 28.48 9.68L28.48 9.68L29.41 9.68Q29.76 9.68 29.76 10.06L29.76 10.06L29.76 11.41L29.89 11.41Q30.24 10.74 31.14 10.21Q32.03 9.68 33.34 9.68L33.34 9.68L34.59 9.68Q34.94 9.68 34.94 10.03L34.94 10.03L34.94 10.80Q34.94 11.15 34.59 11.12L34.59 11.12L33.09 11.12Q31.52 11.12 30.64 12.08Q29.76 13.04 29.76 14.67L29.76 14.67L29.76 25.62Q29.76 26 29.41 26ZM39.42 26L39.42 26L38.50 26Q38.18 26 38.18 25.62L38.18 25.62L38.18 10.06Q38.18 9.68 38.50 9.68L38.50 9.68L39.42 9.68Q39.78 9.68 39.78 10.06L39.78 10.06L39.78 11.34L39.90 11.34Q40.83 9.68 43.30 9.68L43.30 9.68L44.61 9.68Q47.42 9.68 48.51 11.92L48.51 11.92Q48.99 10.80 50.14 10.24Q51.30 9.68 52.51 9.68L52.51 9.68L53.70 9.68Q55.78 9.68 56.96 10.90Q58.14 12.11 58.14 14.22L58.14 14.22L58.14 25.62Q58.14 26 57.79 26L57.79 26L56.86 26Q56.51 26 56.51 25.62L56.51 25.62L56.51 14.29Q56.51 12.75 55.74 11.94Q54.98 11.12 53.50 11.12L53.50 11.12L52.32 11.12Q50.78 11.12 49.89 12Q48.99 12.88 48.99 14.38L48.99 14.38L48.99 25.62Q48.99 26 48.64 26L48.64 26L47.71 26Q47.36 26 47.36 25.62L47.36 25.62L47.36 14.29Q47.36 12.75 46.59 11.94Q45.82 11.12 44.35 11.12L44.35 11.12L43.07 11.12Q41.54 11.12 40.66 11.94Q39.78 12.75 39.78 14.26L39.78 14.26L39.78 25.62Q39.78 26 39.42 26ZM73.41 5.81L73.41 5.81L73.41 25.62Q73.41 26 73.06 26L73.06 26L72.13 26Q71.81 26 71.81 25.62L71.81 25.62L71.81 5.81Q71.81 5.42 72.13 5.42L72.13 5.42L73.06 5.42Q73.41 5.42 73.41 5.81ZM79.94 26L79.94 26L79.01 26Q78.69 26 78.69 25.62L78.69 25.62L78.69 10.06Q78.69 9.68 79.01 9.68L79.01 9.68L79.94 9.68Q80.29 9.68 80.29 10.06L80.29 10.06L80.29 11.34L80.42 11.34Q81.34 9.68 83.81 9.68L83.81 9.68L85.12 9.68Q87.94 9.68 89.02 11.92L89.02 11.92Q89.50 10.80 90.66 10.24Q91.81 9.68 93.02 9.68L93.02 9.68L94.21 9.68Q96.29 9.68 97.47 10.90Q98.66 12.11 98.66 14.22L98.66 14.22L98.66 25.62Q98.66 26 98.30 26L98.30 26L97.38 26Q97.02 26 97.02 25.62L97.02 25.62L97.02 14.29Q97.02 12.75 96.26 11.94Q95.49 11.12 94.02 11.12L94.02 11.12L92.83 11.12Q91.30 11.12 90.40 12Q89.50 12.88 89.50 14.38L89.50 14.38L89.50 25.62Q89.50 26 89.15 26L89.15 26L88.22 26Q87.87 26 87.87 25.62L87.87 25.62L87.87 14.29Q87.87 12.75 87.10 11.94Q86.34 11.12 84.86 11.12L84.86 11.12L83.58 11.12Q82.05 11.12 81.17 11.94Q80.29 12.75 80.29 14.26L80.29 14.26L80.29 25.62Q80.29 26 79.94 26ZM104.54 30.77L104.54 30.77L103.62 30.77Q103.30 30.77 103.30 30.42L103.30 30.42L103.30 10.06Q103.30 9.68 103.62 9.68L103.62 9.68L104.54 9.68Q104.90 9.68 104.90 10.06L104.90 10.06L104.90 11.34L105.02 11.34Q105.92 9.68 108.35 9.68L108.35 9.68L110.53 9.68Q112.58 9.68 113.76 10.90Q114.94 12.11 114.94 14.22L114.94 14.22L114.94 21.46Q114.94 23.57 113.76 24.78Q112.58 26 110.53 26L110.53 26L108.35 26Q105.92 26 105.02 24.34L105.02 24.34L104.90 24.34L104.90 30.42Q104.90 30.77 104.54 30.77ZM108.19 24.56L108.19 24.56L110.30 24.56Q111.78 24.56 112.56 23.74Q113.34 22.93 113.34 21.39L113.34 21.39L113.34 14.29Q113.34 12.75 112.56 11.94Q111.78 11.12 110.30 11.12L110.30 11.12L108.19 11.12Q106.66 11.12 105.78 11.94Q104.90 12.75 104.90 14.26L104.90 14.26L104.90 21.42Q104.90 22.93 105.78 23.74Q106.66 24.56 108.19 24.56ZM120.83 26L120.83 26L119.90 26Q119.58 26 119.58 25.62L119.58 25.62L119.58 3.89Q119.58 3.50 119.90 3.50L119.90 3.50L120.83 3.50Q121.18 3.50 121.18 3.89L121.18 3.89L121.18 25.62Q121.18 26 120.83 26ZM136.99 26L136.99 26L130.30 26Q128.22 26 127.02 24.78Q125.82 23.57 125.82 21.46L125.82 21.46L125.82 14.22Q125.82 12.11 127.02 10.90Q128.22 9.68 130.30 9.68L130.30 9.68L133.06 9.68Q135.14 9.68 136.35 10.90Q137.57 12.11 137.57 14.22L137.57 14.22L137.57 18.29Q137.57 18.67 137.18 18.67L137.18 18.67L127.71 18.67Q127.42 18.67 127.42 18.96L127.42 18.96L127.42 21.42Q127.42 22.93 128.19 23.74Q128.96 24.56 130.43 24.56L130.43 24.56L136.99 24.56Q137.34 24.56 137.34 24.91L137.34 24.91L137.34 25.65Q137.34 26 136.99 26ZM127.71 17.39L127.71 17.39L135.68 17.39Q135.97 17.39 135.97 17.10L135.97 17.10L135.97 14.26Q135.97 12.75 135.20 11.94Q134.43 11.12 132.96 11.12L132.96 11.12L130.43 11.12Q128.96 11.12 128.19 11.94Q127.42 12.75 127.42 14.26L127.42 14.26L127.42 17.10Q127.42 17.39 127.71 17.39ZM143.14 26L143.14 26L142.21 26Q141.89 26 141.89 25.62L141.89 25.62L141.89 10.06Q141.89 9.68 142.21 9.68L142.21 9.68L143.14 9.68Q143.49 9.68 143.49 10.06L143.49 10.06L143.49 11.34L143.62 11.34Q144.54 9.68 147.01 9.68L147.01 9.68L148.32 9.68Q151.14 9.68 152.22 11.92L152.22 11.92Q152.70 10.80 153.86 10.24Q155.01 9.68 156.22 9.68L156.22 9.68L157.41 9.68Q159.49 9.68 160.67 10.90Q161.86 12.11 161.86 14.22L161.86 14.22L161.86 25.62Q161.86 26 161.50 26L161.50 26L160.58 26Q160.22 26 160.22 25.62L160.22 25.62L160.22 14.29Q160.22 12.75 159.46 11.94Q158.69 11.12 157.22 11.12L157.22 11.12L156.03 11.12Q154.50 11.12 153.60 12Q152.70 12.88 152.70 14.38L152.70 14.38L152.70 25.62Q152.70 26 152.35 26L152.35 26L151.42 26Q151.07 26 151.07 25.62L151.07 25.62L151.07 14.29Q151.07 12.75 150.30 11.94Q149.54 11.12 148.06 11.12L148.06 11.12L146.78 11.12Q145.25 11.12 144.37 11.94Q143.49 12.75 143.49 14.26L143.49 14.26L143.49 25.62Q143.49 26 143.14 26ZM177.34 26L177.34 26L170.66 26Q168.58 26 167.38 24.78Q166.18 23.57 166.18 21.46L166.18 21.46L166.18 14.22Q166.18 12.11 167.38 10.90Q168.58 9.68 170.66 9.68L170.66 9.68L173.41 9.68Q175.49 9.68 176.70 10.90Q177.92 12.11 177.92 14.22L177.92 14.22L177.92 18.29Q177.92 18.67 177.54 18.67L177.54 18.67L168.06 18.67Q167.78 18.67 167.78 18.96L167.78 18.96L167.78 21.42Q167.78 22.93 168.54 23.74Q169.31 24.56 170.78 24.56L170.78 24.56L177.34 24.56Q177.70 24.56 177.70 24.91L177.70 24.91L177.70 25.65Q177.70 26 177.34 26ZM168.06 17.39L168.06 17.39L176.03 17.39Q176.32 17.39 176.32 17.10L176.32 17.10L176.32 14.26Q176.32 12.75 175.55 11.94Q174.78 11.12 173.31 11.12L173.31 11.12L170.78 11.12Q169.31 11.12 168.54 11.94Q167.78 12.75 167.78 14.26L167.78 14.26L167.78 17.10Q167.78 17.39 168.06 17.39ZM183.49 26L183.49 26L182.56 26Q182.24 26 182.24 25.62L182.24 25.62L182.24 10.06Q182.24 9.68 182.56 9.68L182.56 9.68L183.49 9.68Q183.84 9.68 183.84 10.06L183.84 10.06L183.84 11.34L183.97 11.34Q184.86 9.68 187.30 9.68L187.30 9.68L189.41 9.68Q191.46 9.68 192.64 10.90Q193.82 12.11 193.82 14.22L193.82 14.22L193.82 25.62Q193.82 26 193.50 26L193.50 26L192.58 26Q192.22 26 192.22 25.62L192.22 25.62L192.22 14.29Q192.22 12.78 191.46 11.95Q190.69 11.12 189.22 11.12L189.22 11.12L187.14 11.12Q185.60 11.12 184.72 11.94Q183.84 12.75 183.84 14.26L183.84 14.26L183.84 25.62Q183.84 26 183.49 26ZM199.17 11.12L199.17 11.12L197.22 11.12Q196.86 11.12 196.86 10.80L196.86 10.80L196.86 10.03Q196.86 9.68 197.22 9.68L197.22 9.68L199.17 9.68Q199.46 9.68 199.46 9.39L199.46 9.39L199.46 6.80Q199.46 6.42 199.81 6.42L199.81 6.42L200.74 6.42Q201.09 6.42 201.09 6.80L201.09 6.80L201.09 9.39Q201.09 9.68 201.38 9.68L201.38 9.68L205.18 9.68Q205.54 9.68 205.54 10.03L205.54 10.03L205.54 10.80Q205.54 11.12 205.18 11.12L205.18 11.12L201.38 11.12Q201.09 11.12 201.09 11.41L201.09 11.41L201.09 21.49Q201.09 22.96 201.92 23.76Q202.75 24.56 204.26 24.56L204.26 24.56L205.50 24.56Q205.86 24.56 205.86 24.91L205.86 24.91L205.86 25.65Q205.86 26 205.50 26L205.50 26L204.13 26Q202.02 26 200.74 24.82Q199.46 23.63 199.46 21.55L199.46 21.55L199.46 11.41Q199.46 11.12 199.17 11.12Z"/></svg><svg style="fill: rgb(255, 255, 255);" x="107.49499893188477" y="204.73500061035156"><path d="M4.70 13L0.58 13L0.58 12.42L1.84 12.20Q1.86 11.56 1.86 10.92Q1.87 10.28 1.87 9.64L1.87 9.64L1.87 6.25L0.54 6.25L0.54 5.54L1.90 5.37Q2.02 4.09 2.26 3.30Q2.51 2.50 3.10 1.91L3.10 1.91Q3.62 1.40 4.18 1.21Q4.74 1.02 5.28 1.02L5.28 1.02Q5.84 1.02 6.27 1.22Q6.70 1.42 6.82 1.88L6.82 1.88Q6.80 2.18 6.54 2.39Q6.29 2.60 5.84 2.60L5.84 2.60Q5.26 2.60 4.69 2.12L4.69 2.12L4.24 1.77Q4.18 1.82 4.12 1.86Q4.06 1.91 4.02 1.96L4.02 1.96Q3.60 2.38 3.38 3.22Q3.17 4.06 3.20 5.40L3.20 5.40L5.41 5.40L5.41 6.25L3.23 6.25L3.23 9.64Q3.23 10.28 3.24 10.91Q3.25 11.54 3.26 12.18L3.26 12.18L4.70 12.42L4.70 13ZM9.07 13.21L9.07 13.21Q8.10 13.21 7.54 12.56Q6.98 11.91 6.99 10.33L6.99 10.33L7.04 6.34L5.90 6.10L5.90 5.53L8.26 5.30L8.42 5.46L8.34 7.70L8.34 10.18Q8.34 11.22 8.66 11.65Q8.98 12.07 9.62 12.07L9.62 12.07Q10.74 12.07 11.86 11.03L11.86 11.03L11.90 6.33L10.77 6.10L10.77 5.53L13.09 5.30L13.25 5.46L13.20 7.70L13.20 12.20L14.29 12.42L14.29 13L12.06 13.13L11.90 11.70Q11.26 12.49 10.54 12.85Q9.81 13.21 9.07 13.21ZM19.18 13L15.47 13L15.47 12.42L16.66 12.20Q16.67 11.59 16.68 10.89Q16.69 10.18 16.69 9.64L16.69 9.64L16.69 8.87Q16.69 8.22 16.68 7.78Q16.67 7.35 16.64 6.87L16.64 6.87L15.38 6.73L15.38 6.17L17.62 5.19L17.86 5.35L17.98 6.63Q18.58 5.99 19.34 5.59Q20.11 5.19 20.85 5.19L20.85 5.19Q21.89 5.19 22.39 5.89Q22.90 6.58 22.90 8.15L22.90 8.15L22.90 9.64Q22.90 10.18 22.90 10.89Q22.91 11.59 22.93 12.20L22.93 12.20L24.05 12.42L24.05 13L20.34 13L20.34 12.42L21.52 12.20Q21.54 11.61 21.54 10.90Q21.55 10.18 21.55 9.64L21.55 9.64L21.55 8.28Q21.55 7.18 21.24 6.76Q20.93 6.34 20.22 6.34L20.22 6.34Q19.68 6.34 19.17 6.57Q18.66 6.79 18.05 7.30L18.05 7.30L18.05 9.64Q18.05 10.17 18.06 10.88Q18.06 11.59 18.08 12.20L18.08 12.20L19.18 12.42L19.18 13ZM32.96 13L28.83 13L28.83 12.42L30.10 12.20Q30.11 11.56 30.12 10.92Q30.13 10.28 30.13 9.64L30.13 9.64L30.13 6.25L28.80 6.25L28.80 5.54L30.16 5.37Q30.27 4.09 30.52 3.30Q30.77 2.50 31.36 1.91L31.36 1.91Q31.87 1.40 32.43 1.21Q32.99 1.02 33.54 1.02L33.54 1.02Q34.10 1.02 34.53 1.22Q34.96 1.42 35.07 1.88L35.07 1.88Q35.06 2.18 34.80 2.39Q34.54 2.60 34.10 2.60L34.10 2.60Q33.52 2.60 32.94 2.12L32.94 2.12L32.50 1.77Q32.43 1.82 32.38 1.86Q32.32 1.91 32.27 1.96L32.27 1.96Q31.86 2.38 31.64 3.22Q31.42 4.06 31.46 5.40L31.46 5.40L33.66 5.40L33.66 6.25L31.49 6.25L31.49 9.64Q31.49 10.28 31.50 10.91Q31.50 11.54 31.52 12.18L31.52 12.18L32.96 12.42L32.96 13ZM40.58 13.16L40.58 13.16Q40 13.16 39.62 12.82Q39.23 12.49 39.14 11.93L39.14 11.93Q38.48 12.57 37.98 12.89Q37.49 13.21 36.78 13.21L36.78 13.21Q35.90 13.21 35.27 12.70Q34.64 12.20 34.64 11.21L34.64 11.21Q34.64 10.74 34.86 10.34Q35.07 9.94 35.65 9.56Q36.22 9.18 37.30 8.79L37.30 8.79Q37.66 8.66 38.14 8.52Q38.62 8.38 39.10 8.26L39.10 8.26L39.10 7.86Q39.10 6.70 38.75 6.31Q38.40 5.93 37.60 5.93L37.60 5.93Q37.42 5.93 37.21 5.94Q36.99 5.96 36.74 6.02L36.74 6.02L36.43 7.06Q36.21 7.83 35.60 7.83L35.60 7.83Q34.93 7.83 34.85 7.18L34.85 7.18Q35.07 6.26 35.91 5.73Q36.75 5.19 37.97 5.19L37.97 5.19Q39.23 5.19 39.84 5.82Q40.45 6.46 40.45 7.98L40.45 7.98L40.45 11.38Q40.45 11.90 40.61 12.11Q40.77 12.33 41.02 12.33L41.02 12.33Q41.23 12.33 41.38 12.23Q41.52 12.14 41.65 11.98L41.65 11.98L41.97 12.33Q41.68 12.79 41.34 12.98Q40.99 13.16 40.58 13.16ZM36.06 10.97L36.06 10.97Q36.06 11.61 36.43 11.88Q36.80 12.15 37.34 12.15L37.34 12.15Q37.58 12.15 37.80 12.09Q38.02 12.02 38.32 11.84Q38.62 11.66 39.10 11.30L39.10 11.30L39.10 8.86Q38.69 8.97 38.29 9.10Q37.89 9.24 37.63 9.34L37.63 9.34Q36.94 9.61 36.61 9.90Q36.27 10.18 36.17 10.46Q36.06 10.73 36.06 10.97ZM46.54 13L42.66 13L42.66 12.42L43.81 12.22Q43.82 11.61 43.83 10.90Q43.84 10.18 43.84 9.64L43.84 9.64L43.84 8.87Q43.84 8.22 43.83 7.78Q43.82 7.35 43.79 6.87L43.79 6.87L42.53 6.73L42.53 6.17L44.77 5.19L45.01 5.35L45.18 7.24Q45.58 6.28 46.22 5.74Q46.85 5.19 47.49 5.19L47.49 5.19Q47.86 5.19 48.18 5.35Q48.50 5.51 48.64 5.78L48.64 5.78Q48.64 6.95 47.70 6.95L47.70 6.95Q47.42 6.95 47.18 6.85Q46.94 6.74 46.72 6.55L46.72 6.55L46.53 6.38Q46.05 6.73 45.73 7.24Q45.41 7.75 45.20 8.44L45.20 8.44L45.20 9.64Q45.20 10.17 45.21 10.87Q45.22 11.58 45.23 12.18L45.23 12.18L46.54 12.42L46.54 13ZM53.10 13L49.39 13L49.39 12.42L50.58 12.20Q50.59 11.59 50.60 10.89Q50.61 10.18 50.61 9.64L50.61 9.64L50.61 8.87Q50.61 8.22 50.60 7.78Q50.59 7.35 50.56 6.87L50.56 6.87L49.30 6.73L49.30 6.17L51.54 5.19L51.78 5.35L51.90 6.65Q52.46 6.01 53.22 5.60Q53.97 5.19 54.70 5.19L54.70 5.19Q55.46 5.19 55.93 5.54Q56.40 5.90 56.61 6.70L56.61 6.70Q57.22 5.94 57.97 5.57Q58.72 5.19 59.50 5.19L59.50 5.19Q60.48 5.19 61.02 5.85Q61.55 6.50 61.55 7.99L61.55 7.99L61.55 9.64Q61.55 10.18 61.56 10.89Q61.57 11.59 61.58 12.20L61.58 12.20L62.70 12.42L62.70 13L58.99 13L58.99 12.42L60.18 12.20Q60.19 11.61 60.20 10.90Q60.21 10.18 60.21 9.64L60.21 9.64L60.21 8.25Q60.21 7.13 59.89 6.74Q59.57 6.34 58.86 6.34L58.86 6.34Q58.37 6.34 57.85 6.57Q57.33 6.79 56.72 7.35L56.72 7.35Q56.74 7.53 56.74 7.73Q56.75 7.93 56.75 8.15L56.75 8.15L56.75 9.64Q56.75 10.18 56.76 10.89Q56.77 11.59 56.78 12.20L56.78 12.20L57.90 12.42L57.90 13L54.19 13L54.19 12.42L55.38 12.20Q55.39 11.61 55.40 10.90Q55.41 10.18 55.41 9.64L55.41 9.64L55.41 8.28Q55.41 7.19 55.10 6.77Q54.80 6.34 54.10 6.34L54.10 6.34Q53.55 6.34 53.06 6.57Q52.56 6.79 51.97 7.30L51.97 7.30L51.97 9.64Q51.97 10.17 51.98 10.88Q51.98 11.59 52 12.20L52 12.20L53.10 12.42L53.10 13ZM67.44 13L63.73 13L63.73 12.42L64.93 12.20Q64.94 11.59 64.95 10.88Q64.96 10.17 64.96 9.64L64.96 9.64L64.96 8.89Q64.96 8.23 64.95 7.79Q64.94 7.35 64.91 6.87L64.91 6.87L63.63 6.73L63.63 6.17L66.10 5.19L66.34 5.35L66.29 7.53L66.29 9.64Q66.29 10.17 66.30 10.88Q66.30 11.59 66.32 12.20L66.32 12.20L67.44 12.42L67.44 13ZM65.62 3.43L65.62 3.43Q65.17 3.43 64.86 3.14Q64.54 2.86 64.54 2.41L64.54 2.41Q64.54 1.94 64.86 1.66Q65.17 1.38 65.62 1.38L65.62 1.38Q66.06 1.38 66.38 1.66Q66.69 1.94 66.69 2.41L66.69 2.41Q66.69 2.86 66.38 3.14Q66.06 3.43 65.62 3.43ZM72.29 13L68.58 13L68.58 12.42L69.76 12.20Q69.78 11.59 69.78 10.89Q69.79 10.18 69.79 9.64L69.79 9.64L69.79 8.87Q69.79 8.22 69.78 7.78Q69.78 7.35 69.74 6.87L69.74 6.87L68.48 6.73L68.48 6.17L70.72 5.19L70.96 5.35L71.09 6.63Q71.68 5.99 72.45 5.59Q73.22 5.19 73.95 5.19L73.95 5.19Q74.99 5.19 75.50 5.89Q76 6.58 76 8.15L76 8.15L76 9.64Q76 10.18 76.01 10.89Q76.02 11.59 76.03 12.20L76.03 12.20L77.15 12.42L77.15 13L73.44 13L73.44 12.42L74.62 12.20Q74.64 11.61 74.65 10.90Q74.66 10.18 74.66 9.64L74.66 9.64L74.66 8.28Q74.66 7.18 74.34 6.76Q74.03 6.34 73.33 6.34L73.33 6.34Q72.78 6.34 72.27 6.57Q71.76 6.79 71.15 7.30L71.15 7.30L71.15 9.64Q71.15 10.17 71.16 10.88Q71.17 11.59 71.18 12.20L71.18 12.20L72.29 12.42L72.29 13ZM81.42 9.80L81.42 9.80Q82.19 9.80 82.62 9.22Q83.06 8.65 83.06 7.77L83.06 7.77Q83.06 6.92 82.65 6.38Q82.24 5.85 81.49 5.85L81.49 5.85Q80.74 5.85 80.30 6.40Q79.87 6.95 79.87 7.83L79.87 7.83Q79.87 8.71 80.28 9.26Q80.69 9.80 81.42 9.80ZM81.46 10.44L81.46 10.44Q80.83 10.44 80.27 10.26L80.27 10.26Q79.87 10.78 79.87 11.29L79.87 11.29Q79.87 11.61 80.06 11.80Q80.24 11.99 80.80 11.99L80.80 11.99L82.90 11.99Q84.22 11.99 84.85 12.54Q85.47 13.08 85.47 14.06L85.47 14.06Q85.47 14.74 85.03 15.38Q84.59 16.02 83.71 16.42Q82.83 16.82 81.52 16.82L81.52 16.82Q79.78 16.82 78.99 16.28Q78.21 15.74 78.21 14.89L78.21 14.89Q78.21 14.38 78.55 13.94Q78.90 13.50 79.78 13.06L79.78 13.06Q78.72 12.78 78.72 11.85L78.72 11.85Q78.72 11.46 78.97 11.05Q79.22 10.63 79.81 10.07L79.81 10.07Q79.23 9.75 78.90 9.19Q78.58 8.63 78.58 7.82L78.58 7.82Q78.58 6.55 79.40 5.87Q80.22 5.19 81.47 5.19L81.47 5.19Q82.74 5.19 83.50 5.82L83.50 5.82L85.31 5.19L85.55 5.35L85.55 6.36L83.98 6.36Q84.35 6.95 84.35 7.82L84.35 7.82Q84.35 9.08 83.53 9.76Q82.70 10.44 81.46 10.44ZM79.52 14.63L79.52 14.63Q79.52 15.42 80.08 15.75Q80.64 16.09 81.58 16.09L81.58 16.09Q82.90 16.09 83.58 15.62Q84.27 15.14 84.27 14.47L84.27 14.47Q84.27 13.94 83.90 13.58Q83.54 13.22 82.67 13.22L82.67 13.22L80.80 13.22Q80.64 13.22 80.47 13.22Q80.30 13.21 80.14 13.19L80.14 13.19Q79.81 13.54 79.66 13.89Q79.52 14.23 79.52 14.63Z"/></svg></svg>